<svg xmlns="http://www.w3.org/2000/svg" xmlns:xlink="http://www.w3.org/1999/xlink" version="1.1" x="0px" y="0px" viewBox="0 0 64 80" enable-background="new 0 0 64 64" xml:space="preserve"><path d="M59.4404907,22.5057373C56.0869141,12.8412476,47.7692261,5.4816284,37.5496216,3.4955444  c-0.0128174-0.0018921-0.0249023-0.0053101-0.0377197-0.0067139C35.7261353,3.1442261,33.8848267,2.9575195,32,2.9575195  c-8.7155151,0-16.5405884,3.8643188-21.8684692,9.9632568c-0.0194092,0.0227661-0.0406494,0.0424805-0.0578003,0.0667114  C5.6465454,18.0863647,2.9575195,24.7329712,2.9575195,32c0,14.0628052,10.0477295,25.8198853,23.3405762,28.4771729  c0.0701294,0.0214844,0.1409302,0.0323486,0.2122803,0.0380249C28.2891846,60.8569946,30.1229858,61.0424805,32,61.0424805  c8.7165527,0,16.5424805-3.8652344,21.8704224-9.9655151c0.0223999-0.0258179,0.0466309-0.0484619,0.06604-0.0762329  C58.357605,45.9033813,61.0424805,39.2614136,61.0424805,32c0-3.2913818-0.5581665-6.4529419-1.5716553-9.4048462  C59.4602661,22.5649414,59.4537964,22.5344849,59.4404907,22.5057373z M57.0866089,21.9208984H28.4996338L37.9042969,5.614624  C46.6443481,7.569519,53.7972412,13.7636719,57.0866089,21.9208984z M27.3374023,23.9243164h9.3251953L41.324707,32  l-4.6601563,8.0722656h-9.3291016l-4.2352905-7.3363037l-0.4243164-0.7355347l0.4924927-0.8544922L27.3374023,23.9243164z   M32,4.9575195c1.2957764,0,2.5687866,0.09729,3.8164063,0.274353l-9.8408203,17.0620728  c-0.0317383,0.0400391-0.0610352,0.0825195-0.0869141,0.1274414l-4.1872559,7.2649536l-0.1804199,0.312439L12.1156616,13.696106  C17.0609131,8.328064,24.1432495,4.9575195,32,4.9575195z M10.741394,15.315979l9.911438,17.180481  c0.0006104,0.0010986,0.0007935,0.0024414,0.0014648,0.00354l0.7637329,1.3228149l3.6052856,6.2494507H6.1887817  C5.3894653,37.5218506,4.9575195,34.8104858,4.9575195,32C4.9575195,25.7078247,7.1237183,19.9155273,10.741394,15.315979z   M6.9107666,42.0722656h19.8237305c0.0087891,0.0002441,0.0169067,0.003418,0.0257568,0.003418h8.7489624l-9.4153442,16.3092651  C17.3522339,56.4290771,10.1986694,50.2322388,6.9107666,42.0722656z M32,59.0424805  c-1.2961426,0-2.569519-0.0973511-3.8175659-0.2745361l14.15448-24.5189209  c0.0007324-0.0012817,0.0006714-0.0028076,0.0014038-0.0040894l0.142334-0.246582l9.4109497,16.2979126  C46.9460449,55.6687622,39.8605347,59.0424805,32,59.0424805z M53.2651978,48.6755981L38.9708862,23.9208984h18.8380127  C58.6096191,26.4732666,59.0424805,29.1869507,59.0424805,32C59.0424805,38.2883911,56.8789063,44.0773926,53.2651978,48.6755981z"/></svg>